<svg width="25" height="25" viewBox="0 0 25 25" fill="none" xmlns="http://www.w3.org/2000/svg">
<circle cx="12.5" cy="12.5" r="12.5" fill="#57CAD5"/>
<path d="M12.54 20.3C11.7533 20.3 11.02 20.1667 10.34 19.9C9.67333 19.62 9.09333 19.2067 8.6 18.66C8.12 18.1133 7.78 17.4467 7.58 16.66L9.74 16.24C9.95333 16.88 10.3 17.3733 10.78 17.72C11.26 18.0667 11.8333 18.24 12.5 18.24C12.9933 18.24 13.4333 18.1467 13.82 17.96C14.2067 17.7733 14.5067 17.5133 14.72 17.18C14.9467 16.8467 15.06 16.4667 15.06 16.04C15.06 15.6133 14.9467 15.24 14.72 14.92C14.5067 14.5867 14.2 14.3333 13.8 14.16C13.4133 13.9867 12.9533 13.9 12.42 13.9H10.94V11.86H12.32C12.8133 11.86 13.24 11.78 13.6 11.62C13.9733 11.4467 14.26 11.2067 14.46 10.9C14.66 10.5933 14.76 10.24 14.76 9.84C14.76 9.46667 14.6667 9.14 14.48 8.86C14.2933 8.58 14.0333 8.36 13.7 8.2C13.38 8.04 13 7.96 12.56 7.96C11.96 7.96 11.4267 8.12667 10.96 8.46C10.5067 8.79333 10.1867 9.27333 10 9.9L7.84 9.48C8 8.76 8.30667 8.13333 8.76 7.6C9.21333 7.06667 9.77333 6.65333 10.44 6.36C11.1067 6.05333 11.8467 5.9 12.66 5.9C13.3 5.9 13.8867 5.99333 14.42 6.18C14.9667 6.35333 15.44 6.60667 15.84 6.94C16.24 7.27333 16.5467 7.67333 16.76 8.14C16.9867 8.59333 17.1 9.1 17.1 9.66C17.1 10.3533 16.92 10.9667 16.56 11.5C16.2133 12.0333 15.7133 12.4533 15.06 12.76C15.7933 13.0267 16.3667 13.4533 16.78 14.04C17.2067 14.6267 17.42 15.3133 17.42 16.1C17.42 16.7 17.2933 17.26 17.04 17.78C16.8 18.2867 16.46 18.7267 16.02 19.1C15.58 19.4733 15.06 19.7667 14.46 19.98C13.8733 20.1933 13.2333 20.3 12.54 20.3Z" fill="white"/>
</svg>
